<?xml version="1.0" standalone="no"?>
<!DOCTYPE svg PUBLIC "-//W3C//DTD SVG 20010904//EN"
 "http://www.w3.org/TR/2001/REC-SVG-20010904/DTD/svg10.dtd">
<svg version="1.0" xmlns="http://www.w3.org/2000/svg"
 width="141.000000pt" height="141.000000pt" viewBox="0 0 141.000000 141.000000"
 preserveAspectRatio="xMidYMid meet">
<metadata>
Created by potrace 1.14, written by Peter Selinger 2001-2017
</metadata>
<g transform="translate(0.000000,141.000000) scale(0.100000,-0.100000)"
fill="#000000" stroke="none">
<path d="M595 1388 c-2 -7 18 -130 45 -273 36 -190 48 -240 45 -185 -3 41 -7
164 -11 273 l-6 197 -34 0 c-19 0 -37 -6 -39 -12z"/>
<path d="M691 1318 c1 -46 4 -108 9 -138 6 -43 7 -26 9 83 0 85 -3 137 -9 137
-6 0 -10 -34 -9 -82z"/>
<path d="M730 1292 c0 -60 -2 -151 -5 -203 -3 -77 -1 -65 15 66 10 88 21 179
24 203 5 37 3 42 -14 42 -19 0 -20 -7 -20 -108z"/>
<path d="M786 1373 c-10 -52 -28 -244 -24 -249 4 -4 49 246 48 269 0 19 -19 4
-24 -20z"/>
<path d="M527 1383 c-12 -3 -17 -11 -14 -21 29 -107 132 -432 134 -425 3 8
-54 347 -72 431 -5 22 -13 24 -48 15z"/>
<path d="M830 1385 c0 -4 -18 -111 -41 -237 -22 -126 -39 -234 -37 -240 4 -10
148 439 148 460 0 7 -6 12 -12 12 -7 0 -23 3 -35 6 -13 4 -23 3 -23 -1z"/>
<path d="M467 1363 c-5 -8 114 -326 120 -320 2 2 -19 75 -46 162 -44 146 -61
180 -74 158z"/>
<path d="M851 1143 c-40 -124 -71 -227 -69 -229 3 -2 181 384 196 426 2 4 -10
12 -26 18 l-29 10 -72 -225z"/>
<path d="M397 1334 c-15 -8 -26 -18 -24 -22 49 -90 260 -462 262 -462 3 0 -17
53 -142 378 -26 67 -52 122 -58 122 -5 -1 -23 -8 -38 -16z"/>
<path d="M991 1323 c-10 -19 -144 -316 -168 -373 -8 -19 -12 -32 -8 -28 11 11
225 380 225 389 0 5 -9 13 -20 19 -15 8 -21 7 -29 -7z"/>
<path d="M336 1302 c-4 -7 144 -245 166 -267 6 -5 -6 19 -26 55 -20 36 -55
100 -79 142 -41 76 -50 87 -61 70z"/>
<path d="M1053 1288 c-6 -7 -45 -74 -88 -148 -43 -74 -100 -173 -127 -220 -63
-108 -54 -98 132 144 l153 198 -24 19 c-29 22 -34 23 -46 7z"/>
<path d="M292 1271 l-23 -17 141 -175 c207 -254 207 -254 -6 73 l-89 137 -23
-18z"/>
<path d="M1044 1133 c-51 -65 -117 -152 -149 -193 l-57 -75 101 105 c204 211
235 249 221 265 -7 8 -15 15 -19 15 -3 0 -47 -53 -97 -117z"/>
<path d="M241 1231 c-7 -5 -12 -13 -10 -19 2 -5 74 -81 159 -168 85 -88 150
-152 144 -144 -20 26 -275 340 -277 340 -1 0 -8 -4 -16 -9z"/>
<path d="M1095 1112 c-155 -163 -165 -182 -27 -53 72 69 132 128 132 132 0 25
-25 6 -105 -79z"/>
<path d="M186 1181 c-16 -18 -11 -24 131 -142 276 -229 269 -224 178 -128
-146 154 -280 289 -286 289 -3 0 -14 -8 -23 -19z"/>
<path d="M1075 1044 l-140 -136 153 122 c124 99 150 125 141 136 -6 8 -12 14
-13 14 0 -1 -64 -62 -141 -136z"/>
<path d="M127 1101 l-26 -40 222 -127 c122 -69 238 -135 257 -147 19 -11 28
-13 20 -5 -36 36 -431 358 -439 358 -4 0 -20 -18 -34 -39z"/>
<path d="M1089 1009 c-207 -167 -218 -178 -89 -91 269 179 279 187 265 205
-11 16 -28 5 -176 -114z"/>
<path d="M752 1080 c0 -14 2 -19 5 -12 2 6 2 18 0 25 -3 6 -5 1 -5 -13z"/>
<path d="M1086 955 c-109 -74 -202 -137 -205 -141 -3 -4 94 44 217 105 l222
112 -15 29 c-9 17 -17 30 -18 30 -1 0 -92 -61 -201 -135z"/>
<path d="M83 1025 c-3 -9 -4 -17 -2 -20 11 -10 359 -167 359 -161 0 5 -336
196 -344 196 -4 0 -9 -7 -13 -15z"/>
<path d="M1088 896 c-243 -124 -291 -152 -203 -118 28 10 140 49 250 86 110
36 206 70 213 74 10 7 9 16 -3 45 -8 20 -16 36 -18 36 -1 -1 -109 -56 -239
-123z"/>
<path d="M55 970 c-4 -12 -3 -25 2 -30 11 -9 425 -151 429 -147 3 3 -363 175
-411 194 -7 2 -16 -5 -20 -17z"/>
<path d="M30 894 c-6 -15 -9 -28 -8 -29 4 -4 477 -105 485 -104 6 0 -347 122
-449 155 -13 4 -21 -2 -28 -22z"/>
<path d="M651 904 c0 -11 3 -14 6 -6 3 7 2 16 -1 19 -3 4 -6 -2 -5 -13z"/>
<path d="M1182 863 c-89 -31 -161 -58 -158 -60 2 -2 59 10 127 27 206 52 229
59 222 76 -3 8 -10 14 -17 13 -6 0 -84 -25 -174 -56z"/>
<path d="M1106 802 c-143 -37 -252 -69 -242 -70 18 -4 529 27 534 33 7 6 -14
99 -23 101 -6 1 -127 -28 -269 -64z"/>
<path d="M17 833 c-9 -9 -9 -63 1 -63 4 0 119 -9 256 -20 137 -11 251 -19 252
-17 3 2 -486 108 -497 107 -3 0 -9 -3 -12 -7z"/>
<path d="M10 721 l0 -30 118 5 c64 2 169 8 232 11 l115 7 -155 12 c-85 7 -190
15 -232 19 l-78 6 0 -30z"/>
<path d="M1111 724 c-106 -7 -201 -15 -210 -16 -9 -2 81 -9 199 -16 118 -7
234 -16 258 -19 l42 -5 0 36 0 36 -47 -1 c-27 -1 -135 -8 -242 -15z"/>
<path d="M53 673 c-24 -2 -43 -8 -43 -14 0 -11 17 -11 160 5 l115 13 -95 0
c-52 0 -114 -2 -137 -4z"/>
<path d="M251 654 c-129 -13 -236 -26 -238 -28 -6 -6 9 -86 16 -86 3 0 123 31
266 69 143 38 244 69 225 69 -19 0 -140 -11 -269 -24z"/>
<path d="M1135 651 c280 -46 265 -45 265 -23 0 23 -24 27 -195 37 -55 3 -131
7 -170 10 -46 3 -11 -5 100 -24z"/>
<path d="M840 657 c8 -9 488 -227 499 -227 10 0 38 77 30 84 -2 2 -114 34
-249 70 -135 37 -254 69 -265 73 -11 3 -18 3 -15 0z"/>
<path d="M931 656 c2 -2 99 -29 214 -60 116 -31 216 -59 222 -61 13 -4 30 41
20 51 -5 5 -418 73 -446 74 -8 0 -12 -2 -10 -4z"/>
<path d="M810 645 c0 -6 458 -325 467 -325 9 0 53 71 53 84 0 4 -19 15 -42 25
-24 11 -141 64 -260 119 -120 55 -218 99 -218 97z"/>
<path d="M285 589 c-275 -73 -257 -67 -249 -92 3 -12 8 -23 9 -25 3 -3 349
125 430 159 45 18 -20 4 -190 -42z"/>
<path d="M288 542 c-232 -89 -246 -97 -215 -133 10 -13 42 0 237 103 124 64
221 117 215 117 -5 0 -112 -40 -237 -87z"/>
<path d="M325 469 c-117 -72 -209 -135 -207 -142 12 -42 25 -36 210 105 178
134 222 169 212 167 -3 -1 -99 -59 -215 -130z"/>
<path d="M422 398 c-99 -106 -181 -197 -182 -203 -1 -5 10 -19 25 -30 l27 -20
21 29 c69 94 296 416 293 416 -2 0 -85 -87 -184 -192z"/>
<path d="M763 580 c7 -23 198 -515 201 -517 1 -1 21 7 45 17 l43 20 -32 55
c-67 116 -262 439 -257 425z"/>
<path d="M373 412 l-193 -167 21 -20 21 -20 41 46 c23 26 102 110 176 188 73
78 132 141 130 141 -2 -1 -91 -76 -196 -168z"/>
<path d="M813 540 c236 -401 252 -428 267 -420 57 31 62 20 -116 245 -91 116
-168 212 -172 215 -3 3 7 -15 21 -40z"/>
<path d="M870 576 c0 -4 295 -266 338 -300 23 -18 24 -18 44 1 19 20 19 20
-181 161 -111 78 -201 140 -201 138z"/>
<path d="M455 343 l-147 -207 22 -18 c12 -10 26 -18 30 -18 5 0 55 87 111 193
56 105 111 207 121 225 47 78 -1 17 -137 -175z"/>
<path d="M756 520 c10 -58 105 -484 109 -488 2 -2 22 2 43 9 l40 14 -94 240
c-108 277 -106 271 -98 225z"/>
<path d="M904 510 c22 -25 95 -103 163 -174 116 -121 125 -128 140 -113 11 11
14 20 8 25 -175 156 -340 296 -311 262z"/>
<path d="M248 461 c-163 -85 -163 -85 -154 -100 4 -6 65 25 149 76 213 129
214 134 5 24z"/>
<path d="M671 524 c0 -11 3 -14 6 -6 3 7 2 16 -1 19 -3 4 -6 -2 -5 -13z"/>
<path d="M856 530 c80 -107 286 -360 292 -360 4 0 13 5 20 12 12 12 6 20 -218
253 -58 60 -100 103 -94 95z"/>
<path d="M498 305 c-60 -112 -108 -208 -108 -213 0 -13 31 -25 41 -15 9 9 180
425 177 429 -2 1 -51 -89 -110 -201z"/>
<path d="M293 387 c-120 -93 -150 -122 -124 -122 10 0 261 213 261 221 0 6 2
8 -137 -99z"/>
<path d="M617 268 c-26 -123 -48 -229 -47 -235 0 -15 60 -18 60 -4 0 6 9 107
21 226 11 119 19 220 17 226 -2 5 -25 -91 -51 -213z"/>
<path d="M568 257 c-67 -209 -69 -226 -32 -227 9 0 109 428 102 436 -2 1 -33
-93 -70 -209z"/>
<path d="M735 380 c9 -121 25 -345 25 -357 0 -6 9 -9 21 -6 16 4 19 11 15 32
-3 14 -17 105 -31 201 -29 193 -37 229 -30 130z"/>
<path d="M700 289 c0 -79 -3 -174 -7 -211 l-6 -68 27 0 c18 0 26 5 26 18 -2
73 -29 394 -34 399 -3 4 -6 -59 -6 -138z"/>
<path d="M522 243 c-39 -97 -69 -180 -66 -184 16 -27 35 9 86 173 32 100 56
183 55 184 -2 2 -35 -76 -75 -173z"/>
<path d="M771 324 c0 -11 3 -14 6 -6 3 7 2 16 -1 19 -3 4 -6 -2 -5 -13z"/>
<path d="M667 220 c-4 -47 -10 -113 -14 -147 -4 -41 -2 -63 5 -63 11 0 26 177
20 250 -2 36 -5 28 -11 -40z"/>
<path d="M781 285 c-1 -28 37 -256 43 -263 19 -18 15 23 -12 145 -16 76 -30
129 -31 118z"/>
</g>
</svg>
